<?xml version="1.0" encoding="UTF-8"?>
<svg width="128" height="128" viewBox="0 0 128 128" xmlns="http://www.w3.org/2000/svg" role="img" aria-labelledby="title desc">
  <title id="title">ShopApp logo</title>
  <desc id="desc">Minimal shopping bag icon with S monogram</desc>
  <defs>
    <linearGradient id="bagGradient" x1="0%" y1="0%" x2="100%" y2="100%">
      <stop offset="0%" stop-color="#2563EB" />
      <stop offset="100%" stop-color="#1D4ED8" />
    </linearGradient>
  </defs>
  <rect x="0" y="0" width="128" height="128" rx="28" fill="#020617" />
  <rect x="26" y="36" width="76" height="66" rx="16" fill="url(#bagGradient)" />
  <path
    d="M46 54c0-10 7-18 18-18s18 8 18 18"
    fill="none"
    stroke="#BFDBFE"
    stroke-width="5"
    stroke-linecap="round"
  />
  <circle cx="50" cy="54" r="3" fill="#BFDBFE" />
  <circle cx="78" cy="54" r="3" fill="#BFDBFE" />
  <path
    d="M54 90c4.5 3 9 4 14 4 6.5 0 10-2.3 10-6 0-3-2.3-4.8-7.7-5.6l-6.4-.9C56 80.6 52 77.4 52 71.2 52 63.8 58.2 60 68 60c5 0 9.1 1 12.8 3.2"
    fill="none"
    stroke="#EFF6FF"
    stroke-width="5"
    stroke-linecap="round"
    stroke-linejoin="round"
  />
</svg>

